

<!-- Generator: Adobe Illustrator 22.0.1, SVG Export Plug-In . SVG Version: 6.00 Build 0)  -->
<svg version="1.1" id="Layer_1" xmlns="http://www.w3.org/2000/svg" xmlns:xlink="http://www.w3.org/1999/xlink" x="0px" y="0px"
	 viewBox="0 0 236.8 235.2" style="enable-background:new 0 0 236.8 235.2;" xml:space="preserve">
<style type="text/css">
	.st0{fill:#FFFFFF;}
</style>
<g>
	<polygon class="st0" points="69.6,150.6 5.6,103.2 82.1,81.2 107.4,5.6 152,71.6 231.7,72.3 182.7,135.1 206.7,211.1 131.8,183.9 
		66.9,230.2 	"/>
	<path d="M108.2,11.2l41,60.7l1.5,2.2l2.6,0l73.3,0.6l-45.1,57.8l-1.6,2.1l0.8,2.5l22.1,69.9l-68.9-25l-2.5-0.9l-2.1,1.5l-59.7,42.6
		l2.5-73.3l0.1-2.6l-2.1-1.6l-58.9-43.6l70.4-20.3l2.5-0.7l0.8-2.5L108.2,11.2 M106.6,0L80.2,79.1L0,102.2l67.1,49.6l-2.8,83.4
		l67.9-48.5l78.4,28.5l-25.1-79.6l51.3-65.8l-83.4-0.7L106.6,0L106.6,0z"/>
</g>
</svg>